<svg enable-background="new 0 0 305 237" height="237" viewBox="0 0 305 237" width="305" xmlns="http://www.w3.org/2000/svg"><path d="m171.151 95.819c0 4.441-3.671 8.042-8.199 8.042h-66.403c-4.528 0-8.199-3.6-8.199-8.042v-66.449c0-4.441 3.671-8.042 8.199-8.042h66.403c4.528 0 8.199 3.6 8.199 8.042z" fill="#808285"/><path d="m118.815 74.94-7.489-28.223h3.831l4.293 18.501c.462 1.938.859 3.863 1.193 5.775.719-3.016 1.143-4.755 1.271-5.217l5.372-19.059h4.505l4.043 14.285c1.014 3.542 1.745 6.873 2.194 9.992.359-1.784.828-3.831 1.405-6.141l4.428-18.135h3.754l-7.739 28.223h-3.6l-5.949-21.504c-.5-1.796-.796-2.9-.885-3.311-.296 1.296-.571 2.4-.828 3.311l-5.987 21.504z" fill="#fff"/><path d="m289.922 184.978c0 4.441-3.671 8.042-8.199 8.042h-66.403c-4.528 0-8.199-3.6-8.199-8.042v-66.45c0-4.441 3.671-8.042 8.199-8.042h66.403c4.528 0 8.199 3.6 8.199 8.042z" fill="#808285"/><path d="m238.913 163.896v-28.224h9.722c2.195 0 3.87.135 5.025.404 1.617.373 2.996 1.047 4.139 2.021 1.488 1.258 2.602 2.866 3.34 4.823s1.107 4.193 1.107 6.709c0 2.144-.25 4.043-.751 5.698-.5 1.655-1.143 3.026-1.925 4.11-.783 1.085-1.64 1.938-2.57 2.561-.931.623-2.054 1.095-3.369 1.415-1.315.321-2.827.481-4.534.481h-10.184zm3.734-3.331h6.026c1.86 0 3.32-.173 4.38-.52 1.059-.347 1.902-.834 2.531-1.463.886-.886 1.575-2.076 2.069-3.571s.741-3.309.741-5.438c0-2.952-.484-5.221-1.453-6.806-.97-1.585-2.146-2.647-3.533-3.187-1.001-.385-2.611-.577-4.832-.577h-5.93z" fill="#fff"/><path d="m102.689 184.978c0 4.441-3.671 8.042-8.199 8.042h-66.404c-4.528 0-8.199-3.6-8.199-8.042v-66.45c0-4.441 3.671-8.042 8.199-8.042h66.403c4.528 0 8.199 3.6 8.199 8.042v66.45z" fill="#808285"/><path d="m47.486 163.084 10.839-28.223h4.023l11.551 28.223h-4.255l-3.292-8.548h-11.8l-3.1 8.548zm8.144-11.589h9.568l-2.946-7.816c-.898-2.375-1.565-4.325-2.002-5.853-.359 1.81-.866 3.607-1.521 5.391z" fill="#fff"/><path d="m196.305 184.978c0 4.441-3.671 8.042-8.199 8.042h-66.403c-4.528 0-8.199-3.6-8.199-8.042v-66.45c0-4.441 3.671-8.042 8.199-8.042h66.403c4.528 0 8.199 3.6 8.199 8.042z" fill="#808285"/><path d="m143.682 154.017 3.522-.308c.167 1.412.556 2.57 1.165 3.475s1.556 1.637 2.84 2.195c1.283.559 2.727.837 4.331.837 1.425 0 2.683-.211 3.773-.635 1.091-.423 1.903-1.004 2.436-1.742.532-.738.799-1.543.799-2.416 0-.886-.257-1.659-.77-2.32-.514-.661-1.361-1.216-2.542-1.666-.757-.295-2.432-.754-5.024-1.376-2.593-.622-4.408-1.209-5.448-1.761-1.348-.706-2.352-1.582-3.013-2.628s-.991-2.217-.991-3.514c0-1.424.404-2.756 1.213-3.995.809-1.238 1.989-2.179 3.542-2.82s3.279-.963 5.179-.963c2.092 0 3.937.337 5.535 1.011s2.826 1.666 3.687 2.975c.859 1.309 1.321 2.792 1.386 4.447l-3.581.27c-.192-1.784-.844-3.131-1.953-4.043-1.11-.911-2.75-1.367-4.919-1.367-2.26 0-3.905.414-4.938 1.242s-1.55 1.826-1.55 2.994c0 1.014.366 1.848 1.098 2.502.719.655 2.596 1.326 5.631 2.012 3.035.687 5.118 1.287 6.247 1.8 1.643.757 2.855 1.717 3.639 2.878.783 1.162 1.175 2.5 1.175 4.014 0 1.501-.431 2.917-1.29 4.245-.86 1.328-2.096 2.361-3.706 3.1-1.611.738-3.424 1.107-5.438 1.107-2.555 0-4.694-.373-6.421-1.117s-3.08-1.864-4.062-3.359c-.985-1.497-1.502-3.188-1.552-5.074z" fill="#fff"/></svg>